<svg width="2000" height="2000" viewBox="0 0 2000 2000" fill="none" xmlns="http://www.w3.org/2000/svg">
<rect x="20" y="20" width="1960" height="1960" rx="980" fill="black"/>
<rect x="20" y="20" width="1960" height="1960" rx="980" stroke="#0DC3A4" stroke-width="40"/>
<g clip-path="url(#clip0_6476_324)">
<mask id="mask0_6476_324" style="mask-type:luminance" maskUnits="userSpaceOnUse" x="360" y="573" width="1280" height="854">
<path d="M1640 573H360V1426.33H1640V573Z" fill="white"/>
</mask>
<g mask="url(#mask0_6476_324)">
<path d="M1640 1119.82V1400.73C1640 1414.9 1628.57 1426.33 1614.4 1426.33H1444.59C1434.01 1426.33 1423.77 1423.09 1415.15 1417.03L853.226 1021.34C833.343 1006.32 786.666 1010.59 786.666 1056.41V1400.73C786.666 1414.9 775.231 1426.33 761.066 1426.33H385.6C371.435 1426.33 360 1414.9 360 1400.73V1025.27C360 1011.1 371.435 999.668 385.6 999.668H615.999C669.588 999.668 701.332 965.193 701.332 914.334V615.668C701.332 601.502 712.767 590.068 726.932 590.068H896.405C908.693 590.068 917.567 593.396 926.271 599.71L1625.49 1091.91C1636.07 1099.34 1640 1107.7 1640 1119.82Z" fill="#0DC3A4"/>
<path d="M1640 598.6V965.362C1640 980.38 1625.49 988.06 1613.12 979.356L1228.01 708.168C1218.79 701.768 1213.33 694.6 1213.33 680.093V598.6C1213.33 584.435 1224.77 573 1238.93 573H1614.4C1628.57 573 1640 584.435 1640 598.6Z" fill="#0DC3A4"/>
</g>
</g>
<defs>
<clipPath id="clip0_6476_324">
<rect width="1280" height="853.333" fill="white" transform="translate(360 573)"/>
</clipPath>
</defs>
</svg>
