<svg width="30" height="30" viewBox="0 0 30 30" fill="none" xmlns="http://www.w3.org/2000/svg">
<circle cx="15" cy="15" r="15" fill="#F7931A"/>
<circle cx="15" cy="15" r="14.5" stroke="white" stroke-opacity="0.2"/>
<path fill-rule="evenodd" clip-rule="evenodd" d="M19.6617 9.82033C20.672 10.1175 21.521 10.8054 22.0197 11.7307H22.0198C22.5235 12.6532 22.6362 13.7383 22.3328 14.7442C22.0145 15.8107 21.2822 16.6433 20.3634 17.1217C20.8694 18.023 21.0265 19.1182 20.7083 20.1842C20.4057 21.1977 19.7255 22.0327 18.793 22.536C18.2048 22.8535 17.5604 23.0147 16.9098 23.0147C16.5243 23.0143 16.1408 22.9582 15.7715 22.8482L15.1832 22.6735L14.4885 25L12.3993 24.3793L13.094 22.053L11.2987 21.5197L10.604 23.846L8.5682 23.2413L8.06569 23.092L8.7308 20.8643L6.25 20.1277L6.95021 17.7827L9.43118 18.5195L11.9802 9.98417L9.49902 9.24717L10.1992 6.90217L12.6804 7.63917L13.4685 5L15.5041 5.60467L16.0066 5.754L15.1889 8.492L16.9799 9.024L17.7976 6.28583L19.8953 6.90917L19.0776 9.647L19.6617 9.82033ZM20.0439 12.7969C20.2624 13.1973 20.3113 13.6682 20.1798 14.1047C19.9085 15.0122 18.9471 15.5306 18.0374 15.2607L13.6231 13.9496L14.6062 10.6569L19.0205 11.9679C19.4589 12.0968 19.8274 12.3953 20.0437 12.7969H20.0439ZM18.5551 19.5446C18.426 19.9819 18.1267 20.3494 17.724 20.5651C17.3227 20.7833 16.8505 20.8321 16.4128 20.7008L11.9985 19.3896L12.982 16.0968L17.396 17.4081C18.3062 17.6785 18.8263 18.637 18.5551 19.5448V19.5446Z" fill="white"/>
</svg>
