<?xml version="1.0" standalone="no"?><!DOCTYPE svg PUBLIC "-//W3C//DTD SVG 1.1//EN" "http://www.w3.org/Graphics/SVG/1.1/DTD/svg11.dtd"><svg t="1746206027609" class="icon" viewBox="0 0 1024 1024" version="1.1" xmlns="http://www.w3.org/2000/svg" p-id="9760" xmlns:xlink="http://www.w3.org/1999/xlink" width="200" height="200"><path d="M458.208 305.152a225.856 225.856 0 1 1 260.64 260.64 32 32 0 1 0 10.688 63.104c136.896-23.168 241.12-142.24 241.12-285.728a289.824 289.824 0 0 0-575.552-48.672 32 32 0 0 0 63.104 10.688zM117.344 682.656a224 224 0 1 1 448 0 224 224 0 0 1-448 0z m224-288c-159.072 0-288 128.928-288 288s128.928 288 288 288 288-128.928 288-288-128.928-288-288-288z m-55.2-227.84A223.872 223.872 0 0 0 117.344 384a32 32 0 0 1-64 0c0-159.2 128.8-288 288-288a32 32 0 0 1 28.64 46.304l-36.576 73.152a32 32 0 0 1-57.248-28.64l10.016-20zM906.656 640a223.904 223.904 0 0 1-168.8 217.184l10.016-20a32 32 0 0 0-57.248-28.64l-36.576 73.152A32 32 0 0 0 682.688 928c159.2 0 288-128.8 288-288a32 32 0 0 0-64 0z" p-id="9761" fill="#ffffff"></path></svg>