<?xml version="1.0" standalone="no"?><!DOCTYPE svg PUBLIC "-//W3C//DTD SVG 1.1//EN" "http://www.w3.org/Graphics/SVG/1.1/DTD/svg11.dtd"><svg t="1746285625122" class="icon" viewBox="0 0 1024 1024" version="1.1" xmlns="http://www.w3.org/2000/svg" p-id="12791" xmlns:xlink="http://www.w3.org/1999/xlink" width="200" height="200"><path d="M657.92 160.64l49.92-149.76L664.96 0l-51.2 98.56L560.64 19.2 472.96 33.28l48 128z m-39.04 128h-42.24v40.96h-64v64a64 64 0 0 0 64 64h42.24a20.48 20.48 0 0 1 20.48 20.48v20.48h-64a20.48 20.48 0 0 1-20.48-20.48h-40.32a64 64 0 0 0 64 64V576h42.24v-43.52h64v-64a64 64 0 0 0-64-64h-44.16A20.48 20.48 0 0 1 556.16 384v-16h64a20.48 20.48 0 0 1 20.48 20.48h41.6a64 64 0 0 0-64-64z m49.92-90.88l97.92 140.8A202.24 202.24 0 0 1 802.56 448a199.04 199.04 0 0 1-197.76 199.04h-14.08A199.04 199.04 0 0 1 392.96 448a202.24 202.24 0 0 1 35.84-114.56l97.92-140.8zM188.16 569.6l366.72 165.12A87.04 87.04 0 0 1 600.96 819.84v19.84a35.84 35.84 0 0 1 0 7.68 80 80 0 0 1-73.6 53.76A69.76 69.76 0 0 1 492.16 896l-136.96-64v31.36l128 59.52a92.8 92.8 0 0 0 37.76 8.32 115.84 115.84 0 0 0 94.72-64 128 128 0 0 0 5.76-87.04l11.52-6.4 246.4-145.92a75.52 75.52 0 0 1 107.52 35.2 90.24 90.24 0 0 1-32 117.76L546.56 1024l-412.16-85.12H24.96V605.44z" fill="#ffffff" p-id="12792"></path></svg>